<svg width="100" height="100" viewBox="230 30 220 220" xmlns="http://www.w3.org/2000/svg">
<circle cx="340" cy="140" r="90" fill="#E1F5EE"/>
<g stroke="#04342C" stroke-width="3" fill="none" stroke-linecap="round">
<path d="M340 95 C 320 110, 320 130, 340 140 C 360 150, 365 165, 350 180"/>
</g>
<g fill="#04342C">
<ellipse cx="340" cy="98" rx="7" ry="14" transform="rotate(-10 340 98)"/>
<ellipse cx="325" cy="112" rx="7" ry="13" transform="rotate(-35 325 112)"/>
<ellipse cx="320" cy="130" rx="6.5" ry="12" transform="rotate(-70 320 130)"/>
<ellipse cx="330" cy="147" rx="6" ry="11" transform="rotate(200 330 147)"/>
<ellipse cx="348" cy="158" rx="5.5" ry="10" transform="rotate(230 348 158)"/>
</g>
<circle cx="349" cy="181" r="4" fill="#0F6E56"/>
<circle cx="362" cy="192" r="3" fill="#5DCAA5"/>
<circle cx="378" cy="198" r="2.2" fill="#9FE1CB"/>
</svg>